<svg viewBox="0 0 745 486" xmlns="http://www.w3.org/2000/svg">
<g transform="translate(271 286.75)" >
<g stroke="rgb(34, 34, 34)" stroke-width="1" >
<line x1="-233.27119651347064" y1="-33.072916666666664" x2="-238.99999999999997" y2="-33.072916666666664"  />
<line x1="-238.99999999999997" y1="-33.072916666666664" x2="-238.99999999999997" y2="49.609375"  />
<line x1="-37.746186608557814" y1="-92.60416666666666" x2="-233.27119651347064" y2="-92.60416666666666"  />
<line x1="-233.27119651347064" y1="-92.60416666666666" x2="-233.27119651347064" y2="-33.072916666666664"  />
<line x1="-37.746186608557814" y1="-132.29166666666666" x2="-37.746186608557814" y2="-132.29166666666666"  />
<line x1="-37.746186608557814" y1="-132.29166666666666" x2="-37.746186608557814" y2="-92.60416666666666"  />
<line x1="-16.20399167987319" y1="-52.916666666666664" x2="-37.746186608557814" y2="-52.916666666666664"  />
<line x1="-37.746186608557814" y1="-52.916666666666664" x2="-37.746186608557814" y2="-92.60416666666666"  />
<line x1="238.99999999999997" y1="-79.375" x2="-16.20399167987319" y2="-79.375"  />
<line x1="-16.20399167987319" y1="-79.375" x2="-16.20399167987319" y2="-52.916666666666664"  />
<line x1="206.00019809825676" y1="-26.458333333333332" x2="-16.20399167987319" y2="-26.458333333333332"  />
<line x1="-16.20399167987319" y1="-26.458333333333332" x2="-16.20399167987319" y2="-52.916666666666664"  />
<line x1="-205.24267036450078" y1="26.458333333333332" x2="-233.27119651347064" y2="26.458333333333332"  />
<line x1="-233.27119651347064" y1="26.458333333333332" x2="-233.27119651347064" y2="-33.072916666666664"  />
<line x1="-216.42804080824087" y1="79.375" x2="-238.99999999999997" y2="79.375"  />
<line x1="-238.99999999999997" y1="79.375" x2="-238.99999999999997" y2="49.609375"  />
<line x1="-213.90689381933436" y1="132.29166666666666" x2="-238.99999999999997" y2="132.29166666666666"  />
<line x1="-238.99999999999997" y1="132.29166666666666" x2="-238.99999999999997" y2="49.609375"  />
</g>
<g>
<circle cx="-37.746186608557814" cy="-132.29166666666666" r="8.5" fill="rgb(251, 128, 114)" stroke="rgb(34, 34, 34)" stroke-width="1" />
<circle cx="238.99999999999997" cy="-79.375" r="8.5" fill="rgb(141, 211, 199)" stroke="rgb(34, 34, 34)" stroke-width="1" />
<circle cx="206.00019809825676" cy="-26.458333333333332" r="8.5" fill="rgb(253, 180, 98)" stroke="rgb(34, 34, 34)" stroke-width="1" />
<circle cx="-205.24267036450078" cy="26.458333333333332" r="8.5" fill="rgb(128, 177, 211)" stroke="rgb(34, 34, 34)" stroke-width="1" />
<circle cx="-216.42804080824087" cy="79.375" r="8.5" fill="rgb(190, 186, 218)" stroke="rgb(34, 34, 34)" stroke-width="1" />
<circle cx="-213.90689381933436" cy="132.29166666666666" r="8.5" fill="rgb(255, 255, 179)" stroke="rgb(34, 34, 34)" stroke-width="1" />
</g>
<rect x="262" y="-145.79166666666666" width="27" height="27" transform="rotate(0,275.5,-132.29166666666666)" fill="rgb(107, 218, 179)" />
<rect x="293" y="-145.79166666666666" width="27" height="27" transform="rotate(0,306.5,-132.29166666666666)" fill="rgb(1, 99, 227)" />
<rect x="324" y="-145.79166666666666" width="27" height="27" transform="rotate(0,337.5,-132.29166666666666)" fill="rgb(154, 42, 178)" />
<rect x="355" y="-145.79166666666666" width="27" height="27" transform="rotate(0,368.5,-132.29166666666666)" fill="rgb(1, 184, 211)" />
<rect x="386" y="-145.79166666666666" width="27" height="27" transform="rotate(0,399.5,-132.29166666666666)" fill="rgb(255, 111, 104)" />
<rect x="417" y="-145.79166666666666" width="27" height="27" transform="rotate(0,430.5,-132.29166666666666)" fill="rgb(1, 168, 113)" />
<rect x="262" y="-92.875" width="27" height="27" transform="rotate(0,275.5,-79.375)" fill="rgb(106, 65, 132)" />
<rect x="293" y="-92.875" width="27" height="27" transform="rotate(0,306.5,-79.375)" fill="rgb(1, 99, 227)" />
<rect x="324" y="-92.875" width="27" height="27" transform="rotate(0,337.5,-79.375)" fill="rgb(154, 42, 178)" />
<rect x="355" y="-92.875" width="27" height="27" transform="rotate(0,368.5,-79.375)" fill="rgb(107, 218, 179)" />
<rect x="386" y="-92.875" width="27" height="27" transform="rotate(0,399.5,-79.375)" fill="rgb(255, 164, 170)" />
<rect x="417" y="-92.875" width="27" height="27" transform="rotate(0,430.5,-79.375)" fill="rgb(1, 168, 113)" />
<rect x="262.00000000000006" y="-39.95833333333333" width="27" height="27" transform="rotate(0,275.50000000000006,-26.458333333333332)" fill="rgb(1, 116, 189)" />
<rect x="293.00000000000006" y="-39.95833333333333" width="27" height="27" transform="rotate(0,306.50000000000006,-26.458333333333332)" fill="rgb(1, 99, 227)" />
<rect x="324.00000000000006" y="-39.95833333333333" width="27" height="27" transform="rotate(0,337.50000000000006,-26.458333333333332)" fill="rgb(154, 42, 178)" />
<rect x="355.00000000000006" y="-39.95833333333333" width="27" height="27" transform="rotate(0,368.50000000000006,-26.458333333333332)" fill="rgb(1, 184, 211)" />
<rect x="386.00000000000006" y="-39.95833333333333" width="27" height="27" transform="rotate(0,399.50000000000006,-26.458333333333332)" fill="rgb(255, 111, 104)" />
<rect x="417.00000000000006" y="-39.95833333333333" width="27" height="27" transform="rotate(0,430.50000000000006,-26.458333333333332)" fill="rgb(1, 168, 113)" />
<rect x="262.00000000000006" y="12.958333333333332" width="27" height="27" transform="rotate(0,275.50000000000006,26.458333333333332)" fill="rgb(166, 7, 58)" />
<rect x="293.00000000000006" y="12.958333333333332" width="27" height="27" transform="rotate(0,306.50000000000006,26.458333333333332)" fill="rgb(1, 99, 227)" />
<rect x="324.00000000000006" y="12.958333333333332" width="27" height="27" transform="rotate(0,337.50000000000006,26.458333333333332)" fill="rgb(154, 42, 178)" />
<rect x="355.00000000000006" y="12.958333333333332" width="27" height="27" transform="rotate(0,368.50000000000006,26.458333333333332)" fill="rgb(1, 184, 211)" />
<rect x="386.00000000000006" y="12.958333333333332" width="27" height="27" transform="rotate(0,399.50000000000006,26.458333333333332)" fill="rgb(1, 116, 189)" />
<rect x="417.00000000000006" y="12.958333333333332" width="27" height="27" transform="rotate(0,430.50000000000006,26.458333333333332)" fill="rgb(1, 168, 113)" />
<rect x="262.0000000000001" y="65.875" width="27" height="27" transform="rotate(0,275.5000000000001,79.375)" fill="rgb(166, 7, 58)" />
<rect x="293.0000000000001" y="65.875" width="27" height="27" transform="rotate(0,306.5000000000001,79.375)" fill="rgb(1, 99, 227)" />
<rect x="324.0000000000001" y="65.875" width="27" height="27" transform="rotate(0,337.5000000000001,79.375)" fill="rgb(154, 42, 178)" />
<rect x="355.0000000000001" y="65.875" width="27" height="27" transform="rotate(0,368.5000000000001,79.375)" fill="rgb(1, 184, 211)" />
<rect x="386.0000000000001" y="65.875" width="27" height="27" transform="rotate(0,399.5000000000001,79.375)" fill="rgb(1, 116, 189)" />
<rect x="417.0000000000001" y="65.875" width="27" height="27" transform="rotate(0,430.5000000000001,79.375)" fill="rgb(1, 168, 113)" />
<rect x="262.00000000000006" y="118.79166666666666" width="27" height="27" transform="rotate(0,275.50000000000006,132.29166666666666)" fill="rgb(166, 7, 58)" />
<rect x="293.00000000000006" y="118.79166666666666" width="27" height="27" transform="rotate(0,306.50000000000006,132.29166666666666)" fill="rgb(1, 99, 227)" />
<rect x="324.00000000000006" y="118.79166666666666" width="27" height="27" transform="rotate(0,337.50000000000006,132.29166666666666)" fill="rgb(154, 42, 178)" />
<rect x="355.00000000000006" y="118.79166666666666" width="27" height="27" transform="rotate(0,368.50000000000006,132.29166666666666)" fill="rgb(1, 184, 211)" />
<rect x="386.00000000000006" y="118.79166666666666" width="27" height="27" transform="rotate(0,399.50000000000006,132.29166666666666)" fill="rgb(1, 116, 189)" />
<rect x="417.00000000000006" y="118.79166666666666" width="27" height="27" transform="rotate(0,430.50000000000006,132.29166666666666)" fill="rgb(1, 168, 113)" />
<g font-family="'Geist Variable', -apple-system, BlinkMacSystemFont, 'Segoe UI', Helvetica, Arial, sans-serif, 'Apple Color Emoji', 'Segoe UI Emoji', 'Segoe UI Symbol', sans-serif" font-size="27">
<text x="275.5" y="-158.75" text-anchor="start" dominant-baseline="middle" transform="rotate(270,275.5,-158.75)">Pos_25</text>
<text x="306.5" y="-158.75" text-anchor="start" dominant-baseline="middle" transform="rotate(270,306.5,-158.75)">Pos_26</text>
<text x="337.5" y="-158.75" text-anchor="start" dominant-baseline="middle" transform="rotate(270,337.5,-158.75)">Pos_27</text>
<text x="368.5" y="-158.75" text-anchor="start" dominant-baseline="middle" transform="rotate(270,368.5,-158.75)">Pos_28</text>
<text x="399.5" y="-158.75" text-anchor="start" dominant-baseline="middle" transform="rotate(270,399.5,-158.75)">Pos_29</text>
<text x="430.5" y="-158.75" text-anchor="start" dominant-baseline="middle" transform="rotate(270,430.5,-158.75)">Pos_30</text>
</g>
</g>
<g transform="translate(271 286.75)" >
<g stroke="rgb(34, 34, 34)" stroke-width="1" >
<line x1="-261" y1="185.2499999999999" x2="-175" y2="185.2499999999999"  />
</g>
<g font-family="'Geist Variable', -apple-system, BlinkMacSystemFont, 'Segoe UI', Helvetica, Arial, sans-serif, 'Apple Color Emoji', 'Segoe UI Emoji', 'Segoe UI Symbol', sans-serif" font-size="13">
<text x="-218" y="185.2499999999999" text-anchor="middle" dominant-baseline="auto" style="padding-bottom:2px">0.074</text>
</g>
</g>
</svg>
